<svg width="32" height="32" viewBox="0 0 32 32" fill="none" xmlns="http://www.w3.org/2000/svg">
<path d="M21.2689 15.0885C21.0533 15.2322 20.7297 15.3401 20.3343 15.3401C19.7232 15.3401 19.148 15.2682 18.5728 15.0885C18.429 15.0525 18.3212 15.0166 18.2493 15.0166C18.1414 15.0166 18.1055 15.0885 18.1055 15.2322V15.5917C18.1055 15.6996 18.1414 15.7715 18.1774 15.8434C18.2133 15.8793 18.2852 15.9512 18.3931 15.9872C18.9682 16.2388 19.6153 16.3467 20.3343 16.3467C21.0892 16.3467 21.6644 16.1669 22.1317 15.8074C22.599 15.4479 22.8147 14.9806 22.8147 14.3695C22.8147 13.9381 22.7069 13.6146 22.4912 13.327C22.2755 13.0753 21.916 12.8237 21.4127 12.6439L20.4062 12.2485C20.0107 12.1047 19.7232 11.9609 19.6153 11.8171C19.4715 11.6733 19.3996 11.5295 19.3996 11.2779C19.3996 10.7387 19.7951 10.4511 20.6219 10.4511C21.0892 10.4511 21.5565 10.523 21.9879 10.6668C22.1317 10.7027 22.2396 10.7387 22.2755 10.7387C22.3834 10.7387 22.4552 10.6668 22.4552 10.523V10.1635C22.4552 10.0556 22.4193 9.98375 22.3834 9.91185C22.3474 9.83996 22.2755 9.80401 22.1677 9.76806C21.6284 9.58831 21.0892 9.48047 20.55 9.48047C19.8669 9.48047 19.2918 9.66021 18.8604 9.98375C18.429 10.3073 18.2133 10.7746 18.2133 11.3138C18.2133 12.1407 18.6806 12.7518 19.6153 13.1113L20.6938 13.5067C21.0533 13.6505 21.2689 13.7584 21.4127 13.9021C21.5565 14.0459 21.5925 14.1897 21.5925 14.4054C21.5925 14.693 21.4846 14.9447 21.2689 15.0885Z" fill="url(#paint0_linear_3353_52964)"/>
<path d="M15.6254 9.9118V14.693C15.0143 15.0884 14.4032 15.3041 13.792 15.3041C13.3966 15.3041 13.109 15.1962 12.9293 14.9805C12.7495 14.7649 12.6776 14.4413 12.6776 13.974V9.9118C12.6776 9.73205 12.6057 9.66016 12.426 9.66016H11.6711C11.4913 9.66016 11.4194 9.73205 11.4194 9.9118V14.3694C11.4194 14.9805 11.5632 15.4838 11.8868 15.8074C12.2103 16.1309 12.6776 16.3106 13.2888 16.3106C14.1156 16.3106 14.9424 16.0231 15.7333 15.4479L15.8052 15.8793C15.8052 15.9871 15.8411 16.0231 15.913 16.059C15.949 16.095 16.0209 16.095 16.1287 16.095H16.6679C16.8477 16.095 16.9196 16.0231 16.9196 15.8433V9.9118C16.9196 9.73205 16.8477 9.66016 16.6679 9.66016H15.913C15.6973 9.66016 15.6254 9.768 15.6254 9.9118Z" fill="url(#paint1_linear_3353_52964)"/>
<path d="M8.79484 16.131H9.54976C9.72951 16.131 9.8014 16.0591 9.8014 15.8793V11.3857C9.8014 10.7746 9.65761 10.3073 9.33407 9.98375C9.01053 9.66021 8.57915 9.48047 7.96802 9.48047C7.14121 9.48047 6.27844 9.76806 5.45162 10.3792C5.16403 9.76806 4.6248 9.48047 3.83394 9.48047C3.04307 9.48047 2.2522 9.76806 1.46133 10.3073L1.38943 9.91185C1.38943 9.80401 1.35348 9.76806 1.28159 9.73211C1.24564 9.69616 1.17374 9.69616 1.10184 9.69616H0.526665C0.346922 9.69616 0.275024 9.76806 0.275024 9.9478V15.9153C0.275024 16.095 0.346922 16.1669 0.526665 16.1669H1.28159C1.46133 16.1669 1.53323 16.095 1.53323 15.9153V11.0622C2.14435 10.7027 2.75548 10.487 3.40255 10.487C3.76204 10.487 4.01368 10.5949 4.15747 10.8106C4.30127 11.0263 4.40911 11.3138 4.40911 11.7452V15.8793C4.40911 16.0591 4.48101 16.131 4.66075 16.131H5.41567C5.59542 16.131 5.66731 16.0591 5.66731 15.8793V11.4576V11.242C5.66731 11.1701 5.66731 11.0982 5.66731 11.0622C6.31439 10.6668 6.92551 10.487 7.53664 10.487C7.89613 10.487 8.14777 10.5949 8.29156 10.8106C8.43536 11.0263 8.5432 11.3138 8.5432 11.7452V15.8793C8.5432 16.0591 8.6151 16.131 8.79484 16.131Z" fill="url(#paint2_linear_3353_52964)"/>
<path d="M28.3871 20.9117C24.4687 22.5653 20.1908 23.3921 16.3084 23.3921C10.5566 23.3921 4.98455 21.8104 0.490976 19.1862C0.419078 19.1502 0.347181 19.1143 0.275284 19.1143C0.0236438 19.1143 -0.120151 19.4018 0.13149 19.6535C4.30153 23.4281 9.83761 25.6929 15.9489 25.6929C20.3346 25.6929 25.4034 24.3268 28.8904 21.7385C29.5015 21.3071 28.9982 20.66 28.3871 20.9117Z" fill="url(#paint3_linear_3353_52964)"/>
<path d="M28.2795 11.0983C28.603 10.7389 29.1063 10.5591 29.8253 10.5591C30.1848 10.5591 30.5442 10.5951 30.8678 10.7029C30.9756 10.7389 31.0116 10.7389 31.0835 10.7389C31.1913 10.7389 31.2632 10.667 31.2632 10.4872V10.1277C31.2632 10.0199 31.2273 9.91204 31.1913 9.87609C31.1554 9.84014 31.0835 9.76824 31.0116 9.73229C30.5442 9.62445 30.0769 9.5166 29.6455 9.5166C28.639 9.5166 27.8841 9.80419 27.3089 10.4153C26.7696 10.9905 26.4821 11.8533 26.4821 12.9317C26.4821 14.0102 26.7337 14.837 27.2729 15.4122C27.8122 15.9874 28.5671 16.2749 29.5736 16.2749C30.1129 16.2749 30.6161 16.203 31.0116 16.0233C31.1194 15.9873 31.1913 15.9514 31.2273 15.8795C31.2632 15.8436 31.2632 15.7357 31.2632 15.6279V15.2684C31.2632 15.0886 31.1913 15.0167 31.0835 15.0167C31.0475 15.0167 30.9756 15.0167 30.9037 15.0527C30.5083 15.1605 30.1129 15.2324 29.7534 15.2324C29.0704 15.2324 28.5671 15.0527 28.2435 14.6932C27.92 14.3337 27.7762 13.7585 27.7762 13.0036V12.8239C27.8122 12.033 27.9559 11.4578 28.2795 11.0983Z" fill="url(#paint4_linear_3353_52964)"/>
<path d="M29.897 24.2911C31.7663 22.7094 32.2696 19.4381 31.8742 18.9348C31.6944 18.7191 30.8317 18.5034 29.7532 18.5034C28.6029 18.5034 27.2368 18.7551 26.1943 19.474C25.8708 19.6897 25.9427 19.9773 26.2662 19.9414C27.3806 19.7976 29.897 19.51 30.3643 20.0852C30.7957 20.6603 29.8611 23.0329 29.4297 24.0755C29.3218 24.399 29.5735 24.5068 29.897 24.2911Z" fill="url(#paint5_linear_3353_52964)"/>
<path d="M24.9004 9.66016H24.1454C23.9657 9.66016 23.8938 9.73205 23.8938 9.9118V15.8793C23.8938 16.059 23.9657 16.1309 24.1454 16.1309H24.9004C25.0801 16.1309 25.152 16.059 25.152 15.8793V9.9118C25.152 9.768 25.0801 9.66016 24.9004 9.66016Z" fill="url(#paint6_linear_3353_52964)"/>
<path d="M25.1161 7.21569C24.9723 7.0719 24.7566 7 24.505 7C24.2533 7 24.0736 7.0719 23.9298 7.21569C23.786 7.35949 23.7141 7.53923 23.7141 7.75492C23.7141 7.97061 23.786 8.1863 23.9298 8.29415C24.0736 8.43794 24.2533 8.50984 24.505 8.50984C24.7566 8.50984 24.9364 8.43794 25.0802 8.29415C25.224 8.15036 25.2959 7.97061 25.2959 7.75492C25.2959 7.53923 25.2599 7.32354 25.1161 7.21569Z" fill="url(#paint7_linear_3353_52964)"/>
<defs>
<linearGradient id="paint0_linear_3353_52964" x1="6.90152" y1="26.4443" x2="27.316" y2="6.02987" gradientUnits="userSpaceOnUse">
<stop stop-color="#0C6CB3"/>
<stop offset="0.2911" stop-color="#1E84C4"/>
<stop offset="0.8873" stop-color="#4CC0EF"/>
<stop offset="1" stop-color="#4CC0EF"/>
</linearGradient>
<linearGradient id="paint1_linear_3353_52964" x1="3.74855" y1="23.2909" x2="24.163" y2="2.87645" gradientUnits="userSpaceOnUse">
<stop stop-color="#0C6CB3"/>
<stop offset="0.2911" stop-color="#1E84C4"/>
<stop offset="0.8873" stop-color="#4CC0EF"/>
<stop offset="1" stop-color="#4CC0EF"/>
</linearGradient>
<linearGradient id="paint2_linear_3353_52964" x1="-0.80487" y1="18.7379" x2="19.6096" y2="-1.67657" gradientUnits="userSpaceOnUse">
<stop stop-color="#0C6CB3"/>
<stop offset="0.2911" stop-color="#1E84C4"/>
<stop offset="0.8873" stop-color="#4CC0EF"/>
<stop offset="1" stop-color="#4CC0EF"/>
</linearGradient>
<linearGradient id="paint3_linear_3353_52964" x1="7.7134" y1="27.2554" x2="28.1278" y2="6.841" gradientUnits="userSpaceOnUse">
<stop stop-color="#0C6CB3"/>
<stop offset="0.2911" stop-color="#1E84C4"/>
<stop offset="0.8873" stop-color="#4CC0EF"/>
<stop offset="1" stop-color="#4CC0EF"/>
</linearGradient>
<linearGradient id="paint4_linear_3353_52964" x1="11.4362" y1="30.9786" x2="31.8506" y2="10.5642" gradientUnits="userSpaceOnUse">
<stop stop-color="#0C6CB3"/>
<stop offset="0.2911" stop-color="#1E84C4"/>
<stop offset="0.8873" stop-color="#4CC0EF"/>
<stop offset="1" stop-color="#4CC0EF"/>
</linearGradient>
<linearGradient id="paint5_linear_3353_52964" x1="15.1847" y1="34.727" x2="35.5992" y2="14.3125" gradientUnits="userSpaceOnUse">
<stop stop-color="#0C6CB3"/>
<stop offset="0.2911" stop-color="#1E84C4"/>
<stop offset="0.8873" stop-color="#4CC0EF"/>
<stop offset="1" stop-color="#4CC0EF"/>
</linearGradient>
<linearGradient id="paint6_linear_3353_52964" x1="8.93676" y1="28.4789" x2="29.3512" y2="8.06446" gradientUnits="userSpaceOnUse">
<stop stop-color="#0C6CB3"/>
<stop offset="0.2911" stop-color="#1E84C4"/>
<stop offset="0.8873" stop-color="#4CC0EF"/>
<stop offset="1" stop-color="#4CC0EF"/>
</linearGradient>
<linearGradient id="paint7_linear_3353_52964" x1="6.36538" y1="25.9075" x2="26.7798" y2="5.49306" gradientUnits="userSpaceOnUse">
<stop stop-color="#0C6CB3"/>
<stop offset="0.2911" stop-color="#1E84C4"/>
<stop offset="0.8873" stop-color="#4CC0EF"/>
<stop offset="1" stop-color="#4CC0EF"/>
</linearGradient>
</defs>
</svg>
