<svg width="32" height="32" viewBox="0 0 32 32" fill="none" xmlns="http://www.w3.org/2000/svg">
<path fill-rule="evenodd" clip-rule="evenodd" d="M32 10.0095C32 9.62798 32 9.24642 32 8.86486C32 8.5469 32 8.21622 31.9873 7.89825C31.9746 7.19873 31.9237 6.48649 31.7965 5.79968C31.6693 5.10016 31.4658 4.43879 31.1351 3.80286C30.8172 3.17965 30.3975 2.59459 29.9014 2.09857C29.4054 1.60254 28.8331 1.18283 28.1971 0.864865C27.5612 0.534181 26.8998 0.330684 26.2003 0.203498C25.5008 0.0763116 24.8013 0.0381558 24.1017 0.0127186C23.7838 0.0127186 23.4658 0 23.1351 0C22.7536 0 22.372 0 21.9905 0H10.0095C9.62798 0 9.24642 0 8.86486 0C8.5469 0 8.21622 0 7.89825 0.0127186C7.19873 0.0381558 6.48649 0.0763116 5.79968 0.203498C5.08744 0.330684 4.43879 0.534181 3.80286 0.864865C3.16693 1.18283 2.59459 1.60254 2.09857 2.09857C1.60254 2.59459 1.18283 3.16693 0.864865 3.80286C0.534181 4.43879 0.330684 5.08744 0.203498 5.79968C0.0763116 6.49921 0.0381558 7.19873 0.0127186 7.89825C0.0127186 8.21622 0 8.5469 0 8.86486C0 9.24642 0 9.62798 0 10.0095V21.9905C0 22.372 0 22.7536 0 23.1351C0 23.4531 0 23.7838 0.0127186 24.1017C0.0254372 24.8013 0.0763116 25.5135 0.203498 26.2003C0.330684 26.8998 0.534181 27.5612 0.864865 28.1971C1.18283 28.8204 1.60254 29.4054 2.09857 29.9014C2.59459 30.3975 3.16693 30.8172 3.80286 31.1351C4.43879 31.4658 5.08744 31.682 5.79968 31.7965C6.49921 31.9237 7.19873 31.9618 7.89825 31.9873C8.21622 32 8.5469 32 8.86486 32C9.24642 32 9.62798 32 10.0095 32H21.9905C22.372 32 22.7536 32 23.1351 32C23.4531 32 23.7838 32 24.1017 31.9873C24.8013 31.9746 25.5135 31.9237 26.2003 31.7965C26.8998 31.6693 27.5612 31.4658 28.1971 31.1351C28.8204 30.8172 29.4054 30.3975 29.9014 29.9014C30.3975 29.4054 30.8172 28.8331 31.1351 28.1971C31.4658 27.5612 31.6693 26.8998 31.7965 26.2003C31.9237 25.5008 31.9618 24.8013 31.9873 24.1017C32 23.7838 32 23.4531 32 23.1351C32 22.7536 32 22.372 32 21.9905V10.0095Z" fill="url(#paint0_linear_3353_52948)"/>
<path fill-rule="evenodd" clip-rule="evenodd" d="M22.6264 4.88384C22.5501 4.89656 21.8633 5.01103 21.7743 5.02374L12.2607 6.95697C12.0064 7.00785 11.8156 7.09688 11.663 7.22406C11.4849 7.37669 11.3832 7.5929 11.345 7.83455C11.345 7.89815 11.3323 7.9999 11.3323 8.16524C11.3323 8.16524 11.3323 17.8823 11.3323 20.0698C11.3323 20.3497 11.3068 20.6167 11.1161 20.8457C10.9253 21.0746 10.6964 21.1509 10.4165 21.2018C10.213 21.24 9.99683 21.2908 9.79333 21.329C9.00478 21.4816 8.49603 21.5961 8.03816 21.7741C7.59301 21.9522 7.26233 22.1684 6.99524 22.4355C6.47378 22.9824 6.25756 23.7328 6.33387 24.4196C6.39747 25.0174 6.66456 25.577 7.12243 26.0094C7.42767 26.2892 7.82195 26.5055 8.27982 26.6072C8.75041 26.6962 9.25915 26.6708 9.99683 26.5182C10.3911 26.4419 10.7599 26.3147 11.1033 26.1112C11.4467 25.9077 11.752 25.6279 11.9809 25.2972C12.2099 24.9665 12.3625 24.5977 12.4515 24.2034C12.5405 23.7964 12.5533 23.4276 12.5533 23.0206V12.6931C12.5533 12.1462 12.7059 11.9935 13.151 11.8918C13.151 11.8918 21.062 10.302 21.4309 10.2257C21.9396 10.1239 22.194 10.2765 22.194 10.8107V17.8568C22.194 18.1366 22.194 18.4164 22.0032 18.6454C21.8124 18.8743 21.5835 18.9506 21.3037 19.0015C21.1002 19.0396 20.884 19.0905 20.6805 19.1287C19.8919 19.2813 19.3832 19.3958 18.9253 19.5738C18.4801 19.7519 18.1495 19.9681 17.8824 20.2352C17.3609 20.7821 17.132 21.5325 17.1956 22.2193C17.2592 22.8171 17.539 23.3767 18.0095 23.8091C18.3148 24.0889 18.7091 24.3051 19.1669 24.3942C19.6375 24.4832 20.1463 24.4578 20.884 24.3051C21.2782 24.2288 21.6471 24.1144 21.9905 23.8982C22.3339 23.6947 22.6391 23.4148 22.8681 23.0842C23.097 22.7535 23.2496 22.3846 23.3386 21.9904C23.4277 21.5834 23.4277 21.2145 23.4277 20.8075V5.73599C23.4277 5.17637 23.1351 4.84568 22.6264 4.88384Z" fill="#FAFAFA"/>
<defs>
<linearGradient id="paint0_linear_3353_52948" x1="16.0024" y1="31.8801" x2="16.0024" y2="0.689602" gradientUnits="userSpaceOnUse">
<stop stop-color="#FA233B"/>
<stop offset="1" stop-color="#FB5C74"/>
</linearGradient>
</defs>
</svg>
