<svg width="32" height="32" viewBox="0 0 32 32" fill="none" xmlns="http://www.w3.org/2000/svg">
<path d="M0.360136 15.2349C0.326752 15.2358 0.294975 15.2494 0.271361 15.2728C0.247747 15.2963 0.234098 15.3279 0.233231 15.3611L0 17.1206L0.233231 18.8528C0.234948 18.8854 0.248971 18.9162 0.272497 18.9389C0.296024 18.9617 0.327321 18.9748 0.360136 18.9756C0.392703 18.974 0.423572 18.9607 0.446942 18.9381C0.470311 18.9155 0.484571 18.8852 0.487041 18.8528L0.764859 17.1206L0.487041 15.3577C0.484571 15.3254 0.470311 15.2951 0.446942 15.2724C0.423572 15.2498 0.392703 15.2365 0.360136 15.2349ZM1.67377 14.2733C1.66702 14.2426 1.65026 14.2149 1.62608 14.1945C1.6019 14.1742 1.57165 14.1623 1.54001 14.1608C1.50562 14.1624 1.47302 14.1765 1.44837 14.2003C1.42371 14.2242 1.40873 14.2563 1.40624 14.2904L1.09413 17.1377L1.40624 19.9236C1.40879 19.9574 1.4239 19.989 1.44863 20.0123C1.47336 20.0356 1.50593 20.049 1.54001 20.0497C1.57385 20.0482 1.60602 20.0347 1.63059 20.0115C1.65517 19.9883 1.6705 19.9571 1.67377 19.9236L2.01676 17.1377L1.67377 14.2733ZM6.61278 11.6477C6.54996 11.6486 6.4899 11.6735 6.44516 11.7174C6.40042 11.7612 6.37445 11.8206 6.37268 11.883L6.12231 17.124L6.37268 20.5101C6.37445 20.5725 6.40042 20.6318 6.44516 20.6757C6.4899 20.7195 6.54996 20.7445 6.61278 20.7453C6.67543 20.743 6.73498 20.7176 6.77994 20.6742C6.82491 20.6307 6.85211 20.5723 6.8563 20.5101L7.13754 17.124L6.85973 11.883C6.85625 11.82 6.82881 11.7606 6.78296 11.7169C6.73711 11.6732 6.67628 11.6485 6.61278 11.6477ZM4.05753 13.4788C4.00892 13.4796 3.96241 13.4987 3.92741 13.5323C3.8924 13.5658 3.87148 13.6113 3.86889 13.6596L3.58764 17.1308L3.86889 20.4896C3.87502 20.5346 3.89735 20.5758 3.93172 20.6056C3.96609 20.6355 4.01018 20.6519 4.05581 20.6519C4.10145 20.6519 4.14554 20.6355 4.17991 20.6056C4.21428 20.5758 4.2366 20.5346 4.24274 20.4896L4.56172 17.1308L4.24274 13.6493C4.23779 13.6035 4.21631 13.5609 4.18226 13.5296C4.14821 13.4982 4.10391 13.4802 4.05753 13.4788ZM9.20232 20.7556C9.27969 20.7547 9.3537 20.724 9.40873 20.6699C9.46376 20.6159 9.49552 20.5426 9.49729 20.4657L9.74081 17.1343L9.50758 10.1508C9.4997 10.078 9.46505 10.0107 9.41028 9.9618C9.35552 9.9129 9.28451 9.88585 9.2109 9.88585C9.13729 9.88585 9.06628 9.9129 9.01151 9.9618C8.95675 10.0107 8.92209 10.078 8.91421 10.1508L8.69813 17.124L8.91764 20.4555C8.92025 20.5321 8.95227 20.6049 9.00713 20.6588C9.06198 20.7127 9.13551 20.7436 9.21261 20.7453L9.20232 20.7556ZM14.522 20.7556C14.6288 20.7538 14.7307 20.7109 14.8063 20.6358C14.8818 20.5607 14.925 20.4594 14.9268 20.3532L15.0983 17.1206L14.9268 9.063C14.9268 8.95628 14.8841 8.85394 14.8082 8.77848C14.7323 8.70302 14.6294 8.66063 14.522 8.66063C14.4147 8.66063 14.3118 8.70302 14.2359 8.77848C14.16 8.85394 14.1173 8.95628 14.1173 9.063L13.963 17.1138L14.1173 20.3532C14.1168 20.4074 14.1273 20.4611 14.148 20.5111C14.1688 20.5612 14.1994 20.6067 14.238 20.6448C14.2767 20.6829 14.3227 20.713 14.3732 20.7332C14.4238 20.7534 14.4779 20.7633 14.5323 20.7624L14.522 20.7556ZM11.8399 20.7556C11.9309 20.7556 12.0181 20.7197 12.0824 20.6557C12.1467 20.5918 12.1829 20.505 12.1829 20.4146L12.3921 17.1377L12.2 10.0996C12.2 10.0092 12.1639 9.92244 12.0996 9.85849C12.0352 9.79454 11.948 9.75862 11.857 9.75862C11.7661 9.75862 11.6788 9.79454 11.6145 9.85849C11.5502 9.92244 11.514 10.0092 11.514 10.0996L11.3185 17.1274L11.5038 20.4044C11.5033 20.4497 11.5119 20.4947 11.5292 20.5367C11.5464 20.5787 11.5719 20.6168 11.6042 20.6489C11.6365 20.681 11.6748 20.7063 11.7171 20.7235C11.7593 20.7406 11.8046 20.7492 11.8502 20.7488L11.8399 20.7556ZM5.32315 20.7249C5.37869 20.724 5.43177 20.702 5.47137 20.6632C5.51097 20.6245 5.53404 20.5721 5.5358 20.5169L5.83077 17.1206L5.52894 13.9017C5.52718 13.8465 5.50411 13.7941 5.46451 13.7553C5.42491 13.7166 5.37183 13.6945 5.31629 13.6937C5.2604 13.6945 5.20693 13.7164 5.16678 13.7551C5.12663 13.7937 5.10282 13.8462 5.10021 13.9017L4.83611 17.1206L5.10021 20.5067C5.10288 20.5648 5.12849 20.6196 5.1715 20.6592C5.2145 20.6988 5.27144 20.7199 5.33001 20.7181L5.32315 20.7249ZM2.78505 20.5408C2.82645 20.5384 2.8656 20.5212 2.89524 20.4924C2.92488 20.4635 2.943 20.425 2.94625 20.3839L3.28924 17.1274L2.94625 13.7482C2.94292 13.7075 2.92468 13.6693 2.89497 13.641C2.86526 13.6128 2.82615 13.5963 2.78505 13.5948C2.74405 13.5956 2.70492 13.6119 2.67561 13.6404C2.64629 13.6689 2.62901 13.7075 2.62727 13.7482L2.32888 17.1274L2.62727 20.3839C2.63072 20.4249 2.64958 20.4631 2.68009 20.4909C2.7106 20.5187 2.75052 20.5341 2.79191 20.5339L2.78505 20.5408ZM13.1844 9.98367C13.1348 9.98367 13.0858 9.99337 13.04 10.0122C12.9942 10.0311 12.9526 10.0587 12.9176 10.0935C12.8826 10.1284 12.8548 10.1697 12.8358 10.2152C12.8169 10.2607 12.8071 10.3095 12.8071 10.3588L12.639 17.1274L12.8071 20.3839C12.8071 20.4834 12.8469 20.5788 12.9176 20.6491C12.9884 20.7195 13.0843 20.759 13.1844 20.759C13.2845 20.759 13.3804 20.7195 13.4512 20.6491C13.5219 20.5788 13.5617 20.4834 13.5617 20.3839L13.7537 17.1274L13.5617 10.3554C13.5617 10.3063 13.5519 10.2576 13.5329 10.2123C13.5139 10.167 13.486 10.1259 13.451 10.0913C13.4159 10.0568 13.3743 10.0295 13.3285 10.011C13.2828 9.9925 13.2338 9.98322 13.1844 9.98367ZM7.90926 20.7522C7.97967 20.7504 8.04671 20.7219 8.09651 20.6723C8.14631 20.6228 8.17505 20.5562 8.17679 20.4862L8.44089 17.124L8.17679 10.6861C8.16931 10.6203 8.13773 10.5596 8.08806 10.5155C8.0384 10.4714 7.97414 10.447 7.90755 10.447C7.84096 10.447 7.7767 10.4714 7.72703 10.5155C7.67737 10.5596 7.64579 10.6203 7.6383 10.6861L7.40507 17.124L7.6383 20.4896C7.64009 20.5599 7.66943 20.6266 7.72005 20.6757C7.77067 20.7247 7.83857 20.7522 7.90926 20.7522ZM10.8487 20.435L11.075 17.1274L10.8487 9.91547C10.8487 9.83046 10.8147 9.74894 10.7542 9.68882C10.6938 9.62871 10.6118 9.59494 10.5262 9.59494C10.4407 9.59494 10.3587 9.62871 10.2983 9.68882C10.2378 9.74894 10.2038 9.83046 10.2038 9.91547L10.0015 17.124L10.2038 20.435C10.2038 20.5201 10.2378 20.6016 10.2983 20.6617C10.3587 20.7218 10.4407 20.7556 10.5262 20.7556C10.6118 20.7556 10.6938 20.7218 10.7542 20.6617C10.8147 20.6016 10.8487 20.5201 10.8487 20.435ZM27.9705 12.9708C27.4501 12.9694 26.9347 13.0714 26.4545 13.2708C26.2995 11.5571 25.5048 9.96316 24.2271 8.80263C22.9493 7.6421 21.2809 6.99904 19.5502 7C18.6916 7.00156 17.8406 7.15991 17.0396 7.46716C16.7446 7.57969 16.6657 7.69903 16.6623 7.92409V20.2986C16.6634 20.4135 16.707 20.524 16.7848 20.6089C16.8626 20.6938 16.9692 20.7473 17.0841 20.759H27.9602C28.4851 20.7744 29.0076 20.685 29.497 20.496C29.9865 20.307 30.4327 20.0222 30.8094 19.6586C31.1861 19.295 31.4856 18.8599 31.6901 18.3792C31.8946 17.8984 32 17.3817 32 16.8598C32 16.3378 31.8946 15.8211 31.6901 15.3403C31.4856 14.8596 31.1861 14.4245 30.8094 14.0609C30.4327 13.6973 29.9865 13.4126 29.497 13.2235C29.0076 13.0345 28.4851 12.9451 27.9602 12.9605L27.9705 12.9708ZM15.87 7.91386C15.755 7.91385 15.6448 7.95901 15.5632 8.03949C15.4816 8.11997 15.4353 8.22924 15.4344 8.34351L15.2595 17.1274L15.4344 20.3157C15.4344 20.4296 15.4799 20.5389 15.561 20.6195C15.642 20.7001 15.7519 20.7453 15.8665 20.7453C15.9812 20.7453 16.0911 20.7001 16.1721 20.6195C16.2532 20.5389 16.2987 20.4296 16.2987 20.3157L16.4908 17.1274L16.3021 8.3401C16.3004 8.22702 16.2541 8.11912 16.1734 8.03947C16.0926 7.95982 15.9837 7.91473 15.87 7.91386ZM3.17948 23.2584C2.71302 23.1527 2.58955 23.0948 2.58955 22.9175C2.58955 22.7879 2.69244 22.6549 3.00799 22.6549C3.13389 22.6556 3.25823 22.6827 3.37288 22.7344C3.48754 22.7861 3.58993 22.8612 3.67338 22.955L4.09526 22.5458C3.96103 22.3939 3.79519 22.2728 3.60923 22.191C3.42326 22.1091 3.22162 22.0685 3.01828 22.0718C2.43863 22.0718 1.97217 22.3957 1.97217 22.9243C1.97217 23.4528 2.34946 23.671 2.88794 23.7938C3.42643 23.9166 3.53962 24.0018 3.53962 24.1894C3.53962 24.3769 3.37498 24.5065 3.02857 24.5065C2.88616 24.5092 2.74497 24.48 2.61551 24.4209C2.48605 24.3619 2.37166 24.2746 2.28086 24.1655L1.85899 24.5406C1.99235 24.7131 2.1653 24.8514 2.36339 24.944C2.56149 25.0365 2.77898 25.0806 2.9977 25.0725C3.79686 25.0725 4.1467 24.6974 4.1467 24.145C4.1467 23.5142 3.63222 23.3676 3.16919 23.2482L3.17948 23.2584ZM5.87193 22.082C5.07277 22.082 4.60288 22.6992 4.60288 23.5824C4.60288 24.4656 5.06248 25.0725 5.86164 25.0725C6.66079 25.0725 7.13411 24.4587 7.13411 23.5722C7.13411 22.6856 6.66079 22.0718 5.86164 22.0718L5.87193 22.082ZM5.87193 24.5065C5.3986 24.5065 5.2031 24.1041 5.2031 23.5858C5.2031 23.0675 5.3986 22.6617 5.87193 22.6617C6.34525 22.6617 6.51674 23.0539 6.51674 23.5756C6.51674 24.0973 6.33496 24.4962 5.86164 24.4962L5.87193 24.5065ZM9.50758 23.7631C9.50758 24.2303 9.27435 24.5167 8.90392 24.5167C8.5335 24.5167 8.30713 24.22 8.30713 23.7563V22.1195H7.71033V23.7529C7.71033 24.602 8.18708 25.0759 8.89363 25.0759C9.60019 25.0759 10.0804 24.5883 10.0804 23.7461V22.1195H9.49729L9.50758 23.7631ZM12.6082 23.3676C12.6082 23.5278 12.6082 23.8927 12.6082 24.0018C12.5704 23.9268 12.4744 23.7836 12.4024 23.6608L11.3734 22.1229H10.8109V25.0316H11.3906V23.7495C11.3906 23.5858 11.3906 23.2209 11.3906 23.1118C11.4283 23.1868 11.5243 23.3335 11.5964 23.4528L12.6699 25.0418H13.1947V22.1195H12.6082V23.3676ZM14.8513 22.1366H13.9355V25.0452H14.8101C15.008 25.0606 15.2068 25.0337 15.3934 24.9665C15.5799 24.8992 15.7498 24.7931 15.8918 24.6552C16.0337 24.5173 16.1443 24.3509 16.2163 24.1671C16.2883 23.9832 16.3199 23.7862 16.309 23.5892C16.309 22.5083 15.6882 22.1195 14.8513 22.1195V22.1366ZM14.8101 24.4826H14.522V22.6856H14.8307C15.4515 22.6856 15.7053 22.9788 15.7053 23.5756C15.719 23.6957 15.7052 23.8174 15.6651 23.9316C15.6249 24.0457 15.5594 24.1494 15.4734 24.2349C15.3874 24.3205 15.2831 24.3856 15.1682 24.4255C15.0534 24.4655 14.931 24.4791 14.8101 24.4656V24.4826ZM18.12 22.6685C18.2303 22.6628 18.3399 22.6895 18.435 22.7453C18.5302 22.8011 18.6067 22.8835 18.655 22.9822L19.2072 22.7163C19.1153 22.5139 18.9639 22.3439 18.7728 22.2289C18.5818 22.1138 18.3601 22.059 18.1371 22.0718C17.3723 22.0718 16.8372 22.689 16.8372 23.5722C16.8372 24.4553 17.3414 25.0725 18.1062 25.0725C18.3351 25.0884 18.5633 25.0342 18.7602 24.9171C18.9571 24.8001 19.1131 24.6258 19.2072 24.4178L18.7133 24.128C18.6648 24.2385 18.5846 24.3324 18.4827 24.3979C18.3809 24.4634 18.2619 24.4976 18.1405 24.4962C17.7015 24.4962 17.4546 24.0973 17.4546 23.5722C17.4546 23.047 17.6809 22.6515 18.12 22.6515V22.6685ZM20.2911 22.1366H19.7046V25.0452H21.4641V24.4553H20.2911V22.1366ZM23.0075 22.0889C22.2084 22.0889 21.735 22.706 21.735 23.5892C21.735 24.4724 22.2084 25.0725 23.0075 25.0725C23.8067 25.0725 24.2766 24.4553 24.2766 23.5688C24.2766 22.6822 23.8032 22.0718 23.0075 22.0718V22.0889ZM23.0075 24.5133C22.5342 24.5133 22.3215 24.1109 22.3215 23.5926C22.3215 23.0743 22.517 22.6685 23.0075 22.6685C23.498 22.6685 23.6661 23.0539 23.6661 23.5756C23.6661 24.0973 23.4774 24.4962 23.0075 24.4962V24.5133ZM26.6397 23.7699C26.6397 24.2371 26.4099 24.5235 26.0395 24.5235C25.6691 24.5235 25.4393 24.2269 25.4393 23.7631V22.1195H24.8528V23.7529C24.8528 24.602 25.3295 25.0759 26.0395 25.0759C26.7495 25.0759 27.2262 24.5883 27.2262 23.7461V22.1195H26.6397V23.7699ZM28.8726 22.1366H27.9568V25.0452H28.8314C29.029 25.0601 29.2275 25.0329 29.4136 24.9654C29.5997 24.8979 29.7692 24.7917 29.9107 24.6538C30.0523 24.516 30.1626 24.3498 30.2344 24.1662C30.3061 23.9826 30.3377 23.7859 30.3268 23.5892C30.3268 22.5083 29.7095 22.1195 28.8726 22.1195V22.1366ZM28.8314 24.4826H28.5433V22.6856H28.852C29.4694 22.6856 29.7266 22.9788 29.7266 23.5756C29.7403 23.6957 29.7265 23.8174 29.6864 23.9316C29.6462 24.0457 29.5807 24.1494 29.4947 24.2349C29.4086 24.3205 29.3043 24.3856 29.1895 24.4255C29.0747 24.4655 28.9523 24.4791 28.8314 24.4656V24.4826Z" fill="url(#paint0_linear_3353_52959)"/>
<defs>
<linearGradient id="paint0_linear_3353_52959" x1="15.9573" y1="7" x2="19.7848" y2="24.2255" gradientUnits="userSpaceOnUse">
<stop stop-color="#FF7403"/>
<stop offset="1" stop-color="#FD3501"/>
</linearGradient>
</defs>
</svg>
