<svg width="32" height="32" viewBox="0 0 32 32" fill="none" xmlns="http://www.w3.org/2000/svg">
<g clip-path="url(#clip0_3353_52962)">
<path fill-rule="evenodd" clip-rule="evenodd" d="M2.43591 8.00498L-0.235718 10.6772L2.43634 13.3487L5.10841 16.0202L7.7801 13.3485L10.4518 10.6768L13.1235 13.3485L15.7952 16.0202L13.1235 18.6924L10.4518 21.3647L13.1239 24.0362L15.7961 26.7079L18.4364 24.067C19.8886 22.6145 21.0768 21.3982 21.0768 21.3641C21.0768 21.33 19.8886 20.1137 18.4364 18.6612L15.7961 16.0204L18.4364 13.3795C19.8886 11.927 21.0768 10.7107 21.0768 10.6766C21.0768 10.6425 19.8886 9.42623 18.4364 7.97373L15.7961 5.33286L13.1239 8.00448L10.4518 10.676L7.77966 8.00448L5.10747 5.33286L2.43591 8.00498ZM23.7797 8.03623L21.1393 10.6772L23.7955 13.3329L26.4518 15.9885L29.108 13.3329L31.7643 10.6772L29.1239 8.03623C27.6717 6.58373 26.4693 5.39536 26.4518 5.39536C26.4343 5.39536 25.2318 6.58373 23.7797 8.03623Z" fill="#FAFAFA"/>
</g>
<defs>
<clipPath id="clip0_3353_52962">
<rect y="-0.000488281" width="32" height="32" fill="white"/>
</clipPath>
</defs>
</svg>
