<svg width="32" height="32" viewBox="0 0 32 32" fill="none" xmlns="http://www.w3.org/2000/svg">
<g clip-path="url(#clip0_3353_52954)">
<path d="M16 32C24.8366 32 32 24.8366 32 16C32 7.16344 24.8366 0 16 0C7.16344 0 0 7.16344 0 16C0 24.8366 7.16344 32 16 32Z" fill="#FF0000"/>
<path d="M16.0004 8.36359C20.2004 8.36359 23.6367 11.7818 23.6367 16C23.6367 20.2181 20.2185 23.6363 16.0004 23.6363C11.7822 23.6363 8.36399 20.2181 8.36399 16C8.36399 11.7818 11.8004 8.36359 16.0004 8.36359ZM16.0004 7.63632C11.3822 7.63632 7.63672 11.3818 7.63672 16C7.63672 20.6181 11.3822 24.3636 16.0004 24.3636C20.6185 24.3636 24.364 20.6181 24.364 16C24.364 11.3818 20.6185 7.63632 16.0004 7.63632Z" fill="#FAFAFA"/>
<path d="M13.0906 20.182L20.1815 15.8184L13.0906 11.8184V20.182Z" fill="#FAFAFA"/>
</g>
<defs>
<clipPath id="clip0_3353_52954">
<rect width="32" height="32" fill="white"/>
</clipPath>
</defs>
</svg>
